<?xml version="1.0" standalone="no"?>
<!DOCTYPE svg PUBLIC "-//W3C//DTD SVG 20010904//EN"
 "http://www.w3.org/TR/2001/REC-SVG-20010904/DTD/svg10.dtd">
<svg version="1.0" xmlns="http://www.w3.org/2000/svg"
 width="1099.000000pt" height="872.000000pt" viewBox="0 0 1099.000000 872.000000"
 preserveAspectRatio="xMidYMid meet">

<g transform="translate(0.000000,872.000000) scale(0.100000,-0.100000)"
fill="#000000" stroke="none">
<path d="M5070 8675 c-693 -47 -1302 -167 -1885 -373 -133 -47 -380 -144 -455
-179 -229 -106 -507 -250 -620 -321 -36 -23 -78 -49 -95 -58 -62 -35 -274
-180 -385 -265 -502 -383 -879 -802 -1154 -1282 -65 -114 -156 -298 -195 -397
-12 -30 -26 -64 -31 -75 -21 -44 -99 -297 -125 -400 -126 -510 -120 -1067 16
-1570 39 -140 52 -182 91 -290 130 -354 321 -688 586 -1024 216 -273 607 -642
897 -844 340 -238 660 -422 960 -554 28 -12 91 -39 141 -61 424 -186 1046
-364 1529 -437 442 -67 702 -87 1140 -87 426 0 737 22 1105 78 234 36 692 135
845 184 209 66 452 145 465 151 8 4 69 28 135 54 147 58 167 66 280 118 123
57 432 214 475 242 19 12 86 52 148 89 322 192 672 467 938 738 123 125 294
322 374 431 19 26 51 69 71 95 122 163 300 485 393 714 224 550 295 1147 205
1708 -114 708 -460 1368 -1016 1941 -373 383 -766 670 -1339 977 -23 12 -360
170 -389 182 -11 4 -45 18 -75 30 -30 11 -64 25 -75 30 -11 4 -47 18 -80 30
-33 13 -87 33 -120 45 -33 13 -105 37 -160 55 -55 17 -127 40 -160 50 -274 87
-783 192 -1145 235 -382 46 -941 64 -1290 40z m965 -171 c472 -35 989 -128
1410 -255 582 -176 1089 -407 1540 -703 439 -288 813 -629 1112 -1011 292
-374 515 -833 618 -1270 173 -737 71 -1482 -298 -2171 -30 -56 -71 -127 -91
-158 -20 -31 -36 -59 -36 -61 0 -3 -16 -28 -35 -55 -19 -28 -52 -74 -72 -102
-248 -355 -628 -729 -1024 -1010 -112 -79 -306 -208 -314 -208 -2 0 -46 -25
-97 -56 -112 -68 -398 -214 -546 -279 -59 -26 -120 -53 -137 -60 -106 -46
-424 -160 -585 -208 -86 -27 -376 -104 -440 -117 -19 -4 -68 -15 -108 -24
-105 -23 -406 -72 -552 -90 -363 -45 -637 -59 -1002 -53 -626 11 -1210 95
-1758 253 -208 60 -207 60 -379 119 -402 138 -897 381 -1251 615 -1201 791
-1865 1954 -1790 3138 32 503 167 945 427 1394 460 798 1254 1456 2278 1887
534 225 1075 368 1705 450 448 59 941 71 1425 35z"/>
<path d="M8420 5670 c-64 -64 -6 -170 83 -153 63 12 89 102 42 148 -31 32 -96
34 -125 5z"/>
<path d="M8317 5466 c-15 -16 -22 -58 -33 -204 l-7 -92 199 2 199 3 -1 35 c-2
86 -27 242 -41 255 -9 10 -35 15 -75 15 l-61 0 7 -82 c3 -46 9 -99 12 -119 5
-28 1 -41 -18 -63 l-24 -28 -18 27 c-17 26 -17 36 -6 136 6 60 9 113 5 119
-10 16 -121 13 -138 -4z"/>
<path d="M7796 5439 c-21 -17 -26 -29 -26 -65 0 -109 136 -133 170 -30 28 85
-72 152 -144 95z"/>
<path d="M9044 5448 c-50 -24 -57 -96 -15 -139 54 -54 135 -25 148 53 5 32 1
41 -25 68 -32 32 -68 38 -108 18z"/>
<path d="M5012 5382 c-10 -7 -12 -133 -10 -598 l3 -589 70 0 70 0 3 589 c2
465 0 591 -10 598 -7 4 -35 8 -63 8 -27 0 -56 -4 -63 -8z"/>
<path d="M5395 5378 c-3 -7 -4 -276 -3 -598 l3 -585 70 0 70 0 3 589 c2 465 0
591 -10 598 -21 13 -128 10 -133 -4z"/>
<path d="M1733 5330 c-148 -22 -251 -135 -261 -286 -6 -95 16 -161 74 -222 24
-25 44 -48 44 -50 0 -2 -22 -28 -48 -57 -36 -39 -53 -69 -65 -112 -22 -77 -21
-107 3 -186 27 -88 96 -165 177 -198 56 -23 68 -24 313 -24 l255 0 3 68 3 67
-233 0 c-205 0 -238 3 -273 19 -55 25 -85 61 -101 121 -11 42 -11 58 1 98 14
47 57 98 101 120 12 7 102 12 220 13 116 1 204 6 212 11 7 6 12 34 12 69 l0
58 -207 3 c-180 3 -213 6 -246 22 -126 63 -123 253 5 315 41 20 60 21 276 21
l232 0 0 64 c0 45 -4 65 -14 69 -21 8 -424 6 -483 -3z"/>
<path d="M7695 5236 c-15 -11 -21 -37 -31 -132 -7 -66 -13 -129 -13 -141 l-1
-23 200 0 200 0 0 23 c0 70 -32 252 -47 269 -14 16 -33 18 -153 18 -100 0
-141 -4 -155 -14z"/>
<path d="M8926 5235 c-9 -9 -16 -17 -17 -18 -4 -8 -23 -270 -20 -273 8 -7 390
-4 394 4 3 4 -3 67 -12 141 -14 106 -21 136 -36 147 -25 19 -121 19 -128 0 -3
-7 1 -60 8 -117 14 -102 11 -123 -18 -147 -11 -9 -18 -8 -32 8 -16 18 -17 30
-10 107 4 49 8 104 9 123 l1 35 -61 3 c-46 2 -66 -1 -78 -13z"/>
<path d="M2750 5038 c-113 -13 -197 -59 -255 -138 -67 -91 -69 -103 -70 -420
l0 -285 70 0 70 0 5 275 c6 298 8 311 63 368 51 53 102 75 177 75 97 0 167
-42 213 -128 21 -37 22 -58 27 -315 l5 -275 70 0 70 0 0 280 c0 316 -5 343
-72 426 -89 109 -218 156 -373 137z"/>
<path d="M4216 5020 c-243 -93 -351 -373 -235 -609 82 -167 272 -262 459 -231
243 41 387 239 360 493 -18 163 -138 304 -299 353 -67 20 -224 17 -285 -6z
m288 -138 c101 -55 148 -145 148 -282 -1 -64 -6 -90 -27 -134 -87 -184 -331
-222 -463 -71 -44 49 -59 81 -72 153 -17 96 2 182 59 259 77 106 234 139 355
75z"/>
<path d="M5980 5018 c-71 -27 -166 -121 -203 -200 -57 -119 -57 -289 -2 -397
50 -101 159 -181 285 -212 32 -7 115 -13 200 -13 l145 -1 3 61 3 62 -153 3
c-149 4 -155 5 -218 36 -37 18 -77 47 -93 68 -30 38 -60 112 -51 126 3 5 141
9 309 9 l303 0 7 38 c11 67 -18 206 -56 270 -73 123 -169 172 -329 171 -72 0
-109 -5 -150 -21z m278 -135 c53 -33 88 -87 101 -157 6 -33 5 -49 -4 -56 -8
-7 -93 -9 -236 -8 l-224 3 2 38 c5 84 74 171 159 203 59 22 146 12 202 -23z"/>
<path d="M8409 5014 c-4 -12 -11 -37 -14 -56 -9 -46 -13 -50 -62 -72 l-43 -19
-51 31 c-28 18 -54 32 -58 32 -4 0 -26 -20 -50 -44 l-43 -44 32 -56 32 -56
-18 -45 c-17 -47 -18 -47 -116 -69 -27 -6 -28 -8 -28 -75 l0 -69 33 -7 c81
-16 94 -24 112 -70 l17 -45 -31 -50 c-17 -28 -31 -54 -31 -58 0 -4 20 -27 44
-51 l44 -44 51 32 c60 36 59 36 108 14 47 -22 48 -23 62 -89 l13 -55 66 3 67
3 15 58 c14 56 17 60 62 79 l47 20 51 -31 c28 -17 54 -31 58 -31 4 0 27 20 51
44 l44 44 -32 51 c-32 53 -38 76 -22 86 5 3 12 19 16 35 5 24 14 32 48 41 88
23 87 22 87 89 0 67 1 66 -87 89 -34 9 -43 17 -48 41 -4 16 -11 32 -16 35 -16
10 -10 33 22 86 l32 51 -44 44 c-24 24 -46 44 -50 44 -4 0 -30 -14 -58 -31
l-50 -31 -45 17 c-47 18 -55 31 -71 112 -6 31 -7 31 -72 35 -59 3 -66 1 -74
-18z m148 -354 c90 -55 86 -197 -7 -245 -66 -34 -163 -7 -195 55 -19 37 -19
103 0 139 34 66 136 92 202 51z"/>
<path d="M3555 5001 c-22 -10 -52 -31 -66 -47 -52 -58 -54 -73 -54 -429 l0
-330 70 0 70 0 5 315 c5 327 8 347 50 370 10 5 56 11 102 13 46 2 89 7 96 11
7 4 12 30 12 62 l0 54 -122 0 c-98 0 -131 -4 -163 -19z"/>
<path d="M6830 5004 c-46 -20 -77 -50 -103 -99 -21 -39 -22 -51 -22 -375 l0
-335 70 0 70 0 5 315 c5 330 8 347 51 371 12 6 63 13 115 16 l94 6 0 58 0 59
-122 0 c-87 -1 -133 -5 -158 -16z"/>
<path d="M7539 4821 c-33 -33 -36 -58 -14 -101 46 -90 165 -53 165 51 0 74
-95 106 -151 50z"/>
<path d="M9277 4839 c-29 -17 -46 -67 -36 -103 25 -87 141 -87 169 -1 13 39
-5 86 -39 105 -25 13 -71 12 -94 -1z"/>
<path d="M7437 4623 c-14 -16 -37 -180 -37 -265 l0 -28 200 0 c233 0 209 -21
184 159 -10 68 -23 123 -32 134 -13 15 -34 17 -157 17 -123 0 -144 -2 -158
-17z"/>
<path d="M9159 4624 c-13 -16 -42 -271 -33 -286 3 -4 93 -8 200 -8 l194 0 0
27 c0 29 -18 194 -26 230 -7 39 -32 53 -89 53 -30 0 -57 -5 -60 -10 -4 -6 -1
-60 5 -120 11 -98 11 -112 -4 -135 -21 -32 -28 -31 -49 4 -15 26 -15 38 -4
129 8 59 10 107 5 116 -13 23 -120 22 -139 0z"/>
<path d="M9008 4210 c-26 -27 -30 -36 -25 -68 12 -76 88 -105 146 -56 25 21
31 33 31 65 0 85 -91 120 -152 59z"/>
<path d="M7843 4223 c-29 -5 -63 -49 -63 -80 0 -71 70 -119 129 -88 99 51 45
188 -66 168z"/>
<path d="M8913 4013 c-17 -15 -23 -38 -32 -128 -6 -60 -11 -122 -11 -137 l0
-28 200 0 c184 0 200 1 200 18 0 9 -7 72 -16 140 -20 144 -28 155 -111 150
l-48 -3 0 -45 c1 -25 4 -79 8 -120 7 -67 6 -78 -13 -100 l-20 -25 -20 25 c-18
22 -19 33 -13 90 4 36 8 90 8 120 l0 55 -56 3 c-42 2 -61 -1 -76 -15z"/>
<path d="M7700 3990 c-13 -24 -35 -253 -26 -275 4 -13 35 -15 195 -15 110 0
192 4 196 10 7 11 -23 247 -35 278 -9 21 -13 22 -164 22 -146 0 -156 -1 -166
-20z"/>
<path d="M8419 3941 c-54 -54 -25 -135 53 -148 32 -5 41 -1 68 25 40 41 41 83
1 123 -20 20 -39 29 -61 29 -22 0 -41 -9 -61 -29z"/>
<path d="M3937 3866 c-4 -10 -5 -21 -2 -24 9 -9 17 6 13 25 -3 17 -4 17 -11
-1z"/>
<path d="M4966 3871 c-4 -7 -5 -15 -2 -18 9 -9 19 4 14 18 -4 11 -6 11 -12 0z"/>
<path d="M6085 3870 c-3 -5 -1 -10 4 -10 6 0 11 5 11 10 0 6 -2 10 -4 10 -3 0
-8 -4 -11 -10z"/>
<path d="M3860 3855 c0 -8 5 -15 10 -15 6 0 10 7 10 15 0 8 -4 15 -10 15 -5 0
-10 -7 -10 -15z"/>
<path d="M4059 3858 c-2 -23 3 -53 10 -60 3 -4 5 10 3 32 -4 39 -11 53 -13 28z"/>
<path d="M4176 3853 c-4 -9 -2 -21 4 -27 7 -7 10 -2 10 17 0 31 -5 34 -14 10z"/>
<path d="M6251 3840 c0 -33 1 -34 10 -11 6 16 6 28 -1 35 -7 7 -10 -1 -9 -24z"/>
<path d="M4740 3851 c0 -6 5 -13 10 -16 6 -3 10 1 10 9 0 9 -4 16 -10 16 -5 0
-10 -4 -10 -9z"/>
<path d="M6302 3840 c0 -14 2 -19 5 -12 2 6 2 18 0 25 -3 6 -5 1 -5 -13z"/>
<path d="M6420 3844 c0 -8 5 -12 10 -9 6 4 8 11 5 16 -9 14 -15 11 -15 -7z"/>
<path d="M6785 3851 c-3 -5 -1 -12 5 -16 5 -3 10 1 10 9 0 18 -6 21 -15 7z"/>
<path d="M4507 3843 c-3 -5 -1 -17 4 -28 7 -17 8 -17 8 8 1 27 -4 34 -12 20z"/>
<path d="M5295 3841 c-3 -5 -1 -12 5 -16 5 -3 10 1 10 9 0 18 -6 21 -15 7z"/>
<path d="M5780 3840 c0 -5 5 -10 10 -10 6 0 10 5 10 10 0 6 -4 10 -10 10 -5 0
-10 -4 -10 -10z"/>
<path d="M4017 3833 c-3 -5 -1 -17 4 -28 7 -17 8 -17 8 8 1 27 -4 34 -12 20z"/>
<path d="M4105 3829 c-4 -6 -5 -12 -2 -15 2 -3 7 2 10 11 7 17 1 20 -8 4z"/>
<path d="M4432 3820 c0 -14 2 -19 5 -12 2 6 2 18 0 25 -3 6 -5 1 -5 -13z"/>
<path d="M4460 3820 c0 -11 2 -20 4 -20 2 0 6 9 9 20 3 11 1 20 -4 20 -5 0 -9
-9 -9 -20z"/>
<path d="M4670 3824 c0 -8 5 -12 10 -9 6 3 10 10 10 16 0 5 -4 9 -10 9 -5 0
-10 -7 -10 -16z"/>
<path d="M5146 3827 c3 -10 9 -15 12 -12 3 3 0 11 -7 18 -10 9 -11 8 -5 -6z"/>
<path d="M6080 3825 c0 -8 5 -15 10 -15 6 0 10 7 10 15 0 8 -4 15 -10 15 -5 0
-10 -7 -10 -15z"/>
<path d="M6516 3827 c3 -10 9 -15 12 -12 3 3 0 11 -7 18 -10 9 -11 8 -5 -6z"/>
<path d="M4637 3811 c-4 -17 -3 -21 5 -13 5 5 8 16 6 23 -3 8 -7 3 -11 -10z"/>
<path d="M4790 3819 c0 -5 5 -7 10 -4 6 3 10 8 10 11 0 2 -4 4 -10 4 -5 0 -10
-5 -10 -11z"/>
<path d="M5570 3819 c0 -5 5 -7 10 -4 6 3 10 8 10 11 0 2 -4 4 -10 4 -5 0 -10
-5 -10 -11z"/>
<path d="M4930 3804 c0 -8 5 -12 10 -9 6 3 10 10 10 16 0 5 -4 9 -10 9 -5 0
-10 -7 -10 -16z"/>
<path d="M4995 3811 c-6 -11 9 -23 19 -14 9 9 7 23 -3 23 -6 0 -12 -4 -16 -9z"/>
<path d="M6616 3811 c-4 -7 -5 -15 -2 -18 9 -9 19 4 14 18 -4 11 -6 11 -12 0z"/>
<path d="M6790 3811 c0 -6 4 -13 10 -16 6 -3 7 1 4 9 -7 18 -14 21 -14 7z"/>
<path d="M3980 3800 c0 -5 5 -10 11 -10 5 0 7 5 4 10 -3 6 -8 10 -11 10 -2 0
-4 -4 -4 -10z"/>
<path d="M4590 3794 c0 -8 5 -12 10 -9 6 4 8 11 5 16 -9 14 -15 11 -15 -7z"/>
<path d="M5955 3800 c-3 -5 -1 -10 4 -10 6 0 11 5 11 10 0 6 -2 10 -4 10 -3 0
-8 -4 -11 -10z"/>
<path d="M6170 3800 c0 -5 5 -10 11 -10 5 0 7 5 4 10 -3 6 -8 10 -11 10 -2 0
-4 -4 -4 -10z"/>
<path d="M6980 3801 c0 -6 5 -13 10 -16 6 -3 10 1 10 9 0 9 -4 16 -10 16 -5 0
-10 -4 -10 -9z"/>
<path d="M8316 3738 c-13 -21 -36 -184 -36 -259 l0 -29 200 0 c150 0 200 3
200 12 0 7 -7 69 -16 138 -20 165 -14 160 -195 160 -133 0 -139 -1 -153 -22z"/>
</g>
</svg>
